<?xml version="1.0" standalone="no"?>
<!DOCTYPE svg PUBLIC "-//W3C//DTD SVG 1.1//EN" "http://www.w3.org/Graphics/SVG/1.1/DTD/svg11.dtd" >
<svg xmlns="http://www.w3.org/2000/svg">
<metadata>Generated by IcoMoon</metadata>
<defs>
<font id="icomoon" horiz-adv-x="1024">
<font-face units-per-em="1024" ascent="877.7142857142858" descent="-146.28571428571428" />
<missing-glyph horiz-adv-x="1024" />
<glyph unicode="&#x20;" horiz-adv-x="256" d="" />
<glyph unicode="&#xe900;" glyph-name="sadhana" horiz-adv-x="865" d="M382.197 781.792c5.769-30.287 25.961-103.842 46.152-164.417 34.614-108.169 38.941-171.628 11.538-181.724-33.172-10.096-51.921 24.518-59.132 103.842-5.769 79.324-20.192 129.803-20.192 70.67 0-14.423-12.98-60.575-28.845-100.958-14.423-41.825-23.076-77.882-18.749-83.651 5.769-4.327-2.885-8.654-18.749-10.096-85.093-2.885-191.82-25.961-246.625-51.921l-47.594-21.634 1.442-194.704c0-106.727 4.327-203.358 8.654-214.896 40.383-105.285 712.473-118.265 837.949-17.307 11.538 11.538 17.307 72.113 17.307 213.454 0 171.628-2.885 200.473-25.961 220.665-30.287 27.403-177.397 62.017-278.355 66.344-15.865 1.442-27.403 20.192-34.614 56.248-4.327 28.845-30.287 102.4-57.69 161.532-51.921 119.707-72.113 174.513-67.786 191.82 1.442 5.769-4.327 10.096-11.538 10.096-10.096 0-12.98-20.192-7.211-53.363zM337.487 352c12.98-20.192 36.056-36.056 51.921-36.056s28.845-10.096 28.845-21.634c0-11.538 7.211-21.634 14.423-21.634 8.654 0 14.423 5.769 14.423 12.98s20.192 34.614 46.152 59.132c43.268 43.268 49.037 46.152 125.476 37.499 111.054-12.98 186.051-31.73 212.011-53.363 20.192-15.865 18.749-20.192-11.538-36.056-103.842-54.806-522.096-70.67-696.608-25.961-54.806 14.423-108.169 37.499-108.169 49.037 0 23.076 142.783 64.901 239.414 70.67 49.037 1.442 63.459-2.885 83.651-34.614z" />
<glyph unicode="&#xe901;" glyph-name="lotus" horiz-adv-x="1365" d="M657.067 841.813c-117.76-136.533-163.84-245.76-165.547-387.413-1.707-172.373 39.253-295.253 139.947-409.6l51.2-59.733 59.733 68.267c182.613 208.213 174.080 583.68-18.773 773.12-46.080 42.667-44.373 42.667-66.56 15.36zM197.973 599.467c-18.773-18.773-22.187-52.907-17.067-136.533 18.773-267.947 153.6-447.147 365.227-477.867l75.093-10.24-44.373 56.32c-98.987 129.707-121.173 201.387-124.587 404.48-3.413 134.827-5.12 145.067-44.373 158.72-76.8 29.013-182.613 30.72-209.92 5.12zM981.333 597.76c-37.547-11.947-68.267-23.893-68.267-23.893-1.707 0 1.707-51.2 5.12-116.053 8.533-143.36-27.307-271.36-107.52-394.24l-61.44-92.16 73.387 11.947c158.72 25.6 293.547 155.307 341.333 325.973 22.187 81.92 30.72 254.293 13.653 281.6-18.773 30.72-119.467 34.133-196.267 6.827zM59.733 244.48l-66.56-58.027 46.080-93.867c107.52-218.453 303.787-303.787 488.107-215.040l78.507 37.547-75.093 13.653c-153.6 25.6-325.973 180.907-353.28 317.44-13.653 69.973-35.84 68.267-117.76-1.707zM1172.48 212.053c-75.093-167.253-182.613-254.293-341.333-285.013l-71.68-13.653 76.8-35.84c192.853-92.16 399.36 5.12 500.053 233.813l34.133 76.8-64.853 56.32c-35.84 30.72-71.68 56.32-78.507 56.32s-30.72-40.96-54.613-88.747z" />
<glyph unicode="&#xe902;" glyph-name="display" d="M0 832v-640h1024v640h-1024zM960 256h-896v512h896v-512zM672 128h-320l-32-128-64-64h512l-64 64z" />
<glyph unicode="&#xe903;" glyph-name="laptop" d="M896 192v512c0 35.2-28.8 64-64 64h-640c-35.2 0-64-28.8-64-64v-512h-128v-192h1024v192h-128zM640 64h-256v64h256v-64zM832 192h-640v511.886c0.034 0.040 0.076 0.082 0.114 0.114h639.77c0.040-0.034 0.082-0.076 0.116-0.116v-511.884z" />
<glyph unicode="&#xe904;" glyph-name="mobile" d="M736 896h-448c-52.8 0-96-43.2-96-96v-832c0-52.8 43.2-96 96-96h448c52.8 0 96 43.2 96 96v832c0 52.8-43.2 96-96 96zM384 848h256v-32h-256v32zM512-64c-35.346 0-64 28.654-64 64s28.654 64 64 64 64-28.654 64-64-28.654-64-64-64zM768 128h-512v640h512v-640z" />
<glyph unicode="&#xe905;" glyph-name="mobile2" d="M768 896h-576c-35.2 0-64-28.798-64-64v-896c0-35.2 28.798-64 64-64h576c35.2 0 64 28.8 64 64v896c0 35.202-28.8 64-64 64zM480-81.782c-27.492 0-49.782 22.29-49.782 49.782s22.29 49.782 49.782 49.782 49.782-22.29 49.782-49.782-22.29-49.782-49.782-49.782zM768 64h-576v704h576v-704z" />
<glyph unicode="&#xe906;" glyph-name="tablet" d="M800 896h-640c-52.8 0-96-43.2-96-96v-832c0-52.8 43.2-96 96-96h640c52.8 0 96 43.2 96 96v832c0 52.8-43.2 96-96 96zM480-96c-17.672 0-32 14.326-32 32s14.328 32 32 32 32-14.326 32-32-14.328-32-32-32zM768 0h-576v768h576v-768z" />
<glyph unicode="&#xe907;" glyph-name="tv" d="M981.188 607.892c-88.808 12.768-183.382 22.016-282.076 27.22l164.888 164.888-64 64-224.558-224.556c-21.006 0.368-42.156 0.556-63.442 0.556v0l-256 256-64-64 194.196-194.196c-120.922-4.242-236.338-14.524-343.386-29.912-27.532-107.726-42.81-226.752-42.81-351.892s15.278-244.166 42.804-351.89c143.642-20.652 302.34-32.11 469.196-32.11s325.55 11.458 469.188 32.11c27.534 107.724 42.812 226.75 42.812 351.89s-15.278 244.166-42.812 351.892zM863.892 21.406c-107.73-13.766-226.75-21.406-351.892-21.406s-244.166 7.64-351.892 21.406c-20.648 71.816-32.108 151.166-32.108 234.594 0 83.43 11.458 162.78 32.108 234.596 107.726 13.766 226.75 21.404 351.892 21.404 125.136 0 244.162-7.638 351.886-21.404 20.656-71.816 32.114-151.166 32.114-234.596 0-83.428-11.458-162.778-32.108-234.594z" />
<glyph unicode="&#xe908;" glyph-name="previous" d="M512 896c-282.77 0-512-229.23-512-512s229.23-512 512-512 512 229.23 512 512-229.23 512-512 512zM512-32c-229.75 0-416 186.25-416 416s186.25 416 416 416 416-186.25 416-416-186.25-416-416-416zM448 384l256 192v-384zM320 576h128v-384h-128v384z" />
<glyph unicode="&#xe909;" glyph-name="next" d="M512 896c282.77 0 512-229.23 512-512s-229.23-512-512-512-512 229.23-512 512 229.23 512 512 512zM512-32c229.75 0 416 186.25 416 416s-186.25 416-416 416-416-186.25-416-416 186.25-416 416-416zM576 384l-256 192v-384zM704 576h-128v-384h128v384z" />
<glyph unicode="&#xe90a;" glyph-name="backward" d="M512-128c282.77 0 512 229.23 512 512s-229.23 512-512 512-512-229.23-512-512 229.23-512 512-512zM512 800c229.75 0 416-186.25 416-416s-186.25-416-416-416-416 186.25-416 416 186.25 416 416 416zM704 224l-224 160 224 160zM448 224l-224 160 224 160z" />
<glyph unicode="&#xe90b;" glyph-name="forward2" d="M512 896c-282.77 0-512-229.23-512-512s229.23-512 512-512 512 229.23 512 512-229.23 512-512 512zM512-32c-229.75 0-416 186.25-416 416s186.25 416 416 416 416-186.25 416-416-186.25-416-416-416zM320 544l224-160-224-160zM576 544l224-160-224-160z" />
<glyph unicode="&#xe90c;" glyph-name="play3" d="M192 768l640-384-640-384z" />
<glyph unicode="&#xe90d;" glyph-name="pause2" d="M128 768h320v-768h-320zM576 768h320v-768h-320z" />
<glyph unicode="&#xe90e;" glyph-name="stop2" d="M128 768h768v-768h-768z" />
<glyph unicode="&#xe90f;" glyph-name="backward2" d="M576 736v-320l320 320v-704l-320 320v-320l-352 352z" />
<glyph unicode="&#xe910;" glyph-name="forward3" d="M512 32v320l-320-320v704l320-320v320l352-352z" />
<glyph unicode="&#xe911;" glyph-name="first" d="M128 0v768h128v-352l320 320v-320l320 320v-704l-320 320v-320l-320 320v-352z" />
<glyph unicode="&#xe912;" glyph-name="last" d="M896 768v-768h-128v352l-320-320v320l-320-320v704l320-320v320l320-320v352z" />
<glyph unicode="&#xe913;" glyph-name="previous2" d="M256 0v768h128v-352l320 320v-704l-320 320v-352z" />
<glyph unicode="&#xe914;" glyph-name="next2" d="M768 768v-768h-128v352l-320-320v704l320-320v352z" />
<glyph unicode="&#xe915;" glyph-name="eject" d="M0 128h1024v-128h-1024zM512 768l512-512h-1024z" />
<glyph unicode="&#xe916;" glyph-name="volume-high" horiz-adv-x="1088" d="M890.040-26.040c-12.286 0-24.566 4.686-33.942 14.056-18.744 18.746-18.744 49.136 0 67.882 87.638 87.642 135.904 204.16 135.904 328.1 0 123.938-48.266 240.458-135.904 328.098-18.744 18.746-18.744 49.138 0 67.882s49.138 18.744 67.882 0c105.77-105.772 164.022-246.4 164.022-395.98s-58.252-290.208-164.022-395.98c-9.372-9.372-21.656-14.058-33.94-14.058zM719.53 64.47c-12.286 0-24.566 4.686-33.942 14.056-18.744 18.744-18.744 49.136 0 67.882 131.006 131.006 131.006 344.17 0 475.176-18.744 18.746-18.744 49.138 0 67.882 18.744 18.742 49.138 18.744 67.882 0 81.594-81.59 126.53-190.074 126.53-305.466 0-115.39-44.936-223.876-126.53-305.47-9.372-9.374-21.656-14.060-33.94-14.060v0zM549.020 154.98c-12.286 0-24.568 4.686-33.942 14.058-18.746 18.746-18.746 49.134 0 67.88 81.1 81.1 81.1 213.058 0 294.156-18.746 18.746-18.746 49.138 0 67.882s49.136 18.744 67.882 0c118.53-118.53 118.53-311.392 0-429.922-9.372-9.368-21.656-14.054-33.94-14.054zM416.006-64c-8.328 0-16.512 3.25-22.634 9.374l-246.626 246.626h-114.746c-17.672 0-32 14.326-32 32v320c0 17.672 14.328 32 32 32h114.746l246.626 246.628c9.154 9.154 22.916 11.89 34.874 6.936 11.958-4.952 19.754-16.622 19.754-29.564v-832c0-12.944-7.796-24.612-19.754-29.564-3.958-1.64-8.118-2.436-12.24-2.436z" />
<glyph unicode="&#xe917;" glyph-name="volume-medium" d="M719.53 64.47c-12.286 0-24.566 4.686-33.942 14.056-18.744 18.744-18.744 49.136 0 67.882 131.006 131.006 131.006 344.17 0 475.176-18.744 18.746-18.744 49.138 0 67.882 18.744 18.742 49.138 18.744 67.882 0 81.594-81.59 126.53-190.074 126.53-305.466 0-115.39-44.936-223.876-126.53-305.47-9.372-9.374-21.656-14.060-33.94-14.060v0zM549.020 154.98c-12.286 0-24.566 4.686-33.942 14.058-18.746 18.746-18.746 49.134 0 67.88 81.1 81.1 81.1 213.058 0 294.156-18.746 18.746-18.746 49.138 0 67.882s49.136 18.744 67.882 0c118.53-118.53 118.53-311.392 0-429.922-9.372-9.368-21.656-14.054-33.94-14.054zM416.006-64c-8.328 0-16.512 3.25-22.634 9.374l-246.626 246.626h-114.746c-17.672 0-32 14.326-32 32v320c0 17.672 14.328 32 32 32h114.746l246.626 246.628c9.154 9.154 22.916 11.89 34.874 6.936 11.958-4.952 19.754-16.622 19.754-29.564v-832c0-12.944-7.796-24.612-19.754-29.564-3.958-1.64-8.118-2.436-12.24-2.436z" />
<glyph unicode="&#xe918;" glyph-name="volume-low" d="M549.020 154.98c-12.286 0-24.566 4.686-33.942 14.058-18.746 18.746-18.746 49.134 0 67.88 81.1 81.1 81.1 213.058 0 294.156-18.746 18.746-18.746 49.138 0 67.882s49.136 18.744 67.882 0c118.53-118.53 118.53-311.392 0-429.922-9.372-9.368-21.656-14.054-33.94-14.054zM416.006-64c-8.328 0-16.512 3.25-22.634 9.374l-246.626 246.626h-114.746c-17.672 0-32 14.326-32 32v320c0 17.672 14.328 32 32 32h114.746l246.626 246.628c9.154 9.154 22.916 11.89 34.874 6.936 11.958-4.952 19.754-16.622 19.754-29.564v-832c0-12.944-7.796-24.612-19.754-29.564-3.958-1.64-8.118-2.436-12.24-2.436z" />
<glyph unicode="&#xe919;" glyph-name="volume-mute" d="M416.006-64c-8.328 0-16.512 3.25-22.634 9.374l-246.626 246.626h-114.746c-17.672 0-32 14.326-32 32v320c0 17.672 14.328 32 32 32h114.746l246.626 246.628c9.154 9.154 22.916 11.89 34.874 6.936 11.958-4.952 19.754-16.622 19.754-29.564v-832c0-12.944-7.796-24.612-19.754-29.564-3.958-1.64-8.118-2.436-12.24-2.436z" />
<glyph unicode="&#xe91a;" glyph-name="volume-mute2" d="M960 276.852v-84.852h-84.852l-107.148 107.148-107.148-107.148h-84.852v84.852l107.148 107.148-107.148 107.148v84.852h84.852l107.148-107.148 107.148 107.148h84.852v-84.852l-107.148-107.148 107.148-107.148zM416.006-64c-8.328 0-16.512 3.25-22.634 9.374l-246.626 246.626h-114.746c-17.672 0-32 14.326-32 32v320c0 17.672 14.328 32 32 32h114.746l246.626 246.628c9.154 9.154 22.916 11.89 34.874 6.936 11.958-4.952 19.754-16.622 19.754-29.564v-832c0-12.944-7.796-24.612-19.754-29.564-3.958-1.64-8.118-2.436-12.24-2.436z" />
<glyph unicode="&#xe91b;" glyph-name="volume-increase" d="M1024 320h-192v-192h-128v192h-192v128h192v192h128v-192h192v-128zM416.006-64c-8.328 0-16.512 3.25-22.634 9.374l-246.626 246.626h-114.746c-17.672 0-32 14.326-32 32v320c0 17.672 14.328 32 32 32h114.746l246.626 246.628c9.154 9.154 22.916 11.89 34.874 6.936 11.958-4.952 19.754-16.622 19.754-29.564v-832c0-12.944-7.796-24.612-19.754-29.564-3.958-1.64-8.118-2.436-12.24-2.436z" />
<glyph unicode="&#xe91c;" glyph-name="volume-decrease" d="M512 448h512v-128h-512v128zM416.006-64c-8.328 0-16.512 3.25-22.634 9.374l-246.626 246.626h-114.746c-17.672 0-32 14.326-32 32v320c0 17.672 14.328 32 32 32h114.746l246.626 246.628c9.154 9.154 22.916 11.89 34.874 6.936 11.958-4.952 19.754-16.622 19.754-29.564v-832c0-12.944-7.796-24.612-19.754-29.564-3.958-1.64-8.118-2.436-12.24-2.436z" />
<glyph unicode="&#xe91d;" glyph-name="loop" d="M128 576h640v-192l256 256-256 256v-192h-768v-384h128zM896 192h-640v192l-256-256 256-256v192h768v384h-128z" />
<glyph unicode="&#xe91e;" glyph-name="loop2" d="M889.68 729.68c-93.608 102.216-228.154 166.32-377.68 166.32-282.77 0-512-229.23-512-512h96c0 229.75 186.25 416 416 416 123.020 0 233.542-53.418 309.696-138.306l-149.696-149.694h352v352l-134.32-134.32zM928 384c0-229.75-186.25-416-416-416-123.020 0-233.542 53.418-309.694 138.306l149.694 149.694h-352v-352l134.32 134.32c93.608-102.216 228.154-166.32 377.68-166.32 282.77 0 512 229.23 512 512h-96z" />
<glyph unicode="&#xe91f;" glyph-name="infinite" d="M783.988 143.988c-64.104 0-124.372 24.96-169.7 70.288l-102.288 102.282-102.276-102.27c-45.332-45.336-105.6-70.3-169.706-70.3-64.118 0-124.39 24.964-169.722 70.3-45.332 45.334-70.296 105.604-70.296 169.712s24.964 124.38 70.296 169.714c45.334 45.332 105.608 70.296 169.714 70.296 64.108 0 124.38-24.964 169.712-70.296l102.278-102.276 102.276 102.276c45.332 45.332 105.604 70.298 169.712 70.298 64.112 0 124.384-24.966 169.71-70.298 45.338-45.334 70.302-105.606 70.302-169.714 0-64.112-24.964-124.382-70.3-169.71-45.326-45.336-105.598-70.302-169.712-70.302zM681.72 281.712c27.322-27.31 63.64-42.354 102.268-42.352 38.634 0 74.958 15.044 102.276 42.362 27.316 27.322 42.364 63.644 42.364 102.278s-15.046 74.956-42.364 102.274c-27.32 27.318-63.64 42.364-102.276 42.364-38.632 0-74.956-15.044-102.278-42.364l-102.268-102.274 102.278-102.288zM240.012 528.638c-38.634 0-74.956-15.044-102.274-42.364-27.32-27.318-42.364-63.64-42.364-102.274 0-38.632 15.044-74.954 42.364-102.276 27.32-27.316 63.642-42.364 102.274-42.364 38.634 0 74.956 15.044 102.272 42.362l102.276 102.278-102.276 102.274c-27.318 27.32-63.64 42.366-102.272 42.364v0z" />
<glyph unicode="&#xe920;" glyph-name="shuffle" d="M768 192h-101.49l-160 160 160 160h101.49v-160l224 224-224 224v-160h-128c-16.974 0-33.252-6.744-45.254-18.746l-178.746-178.744-178.746 178.746c-12 12-28.28 18.744-45.254 18.744h-192v-128h165.49l160-160-160-160h-165.49v-128h192c16.974 0 33.252 6.742 45.254 18.746l178.746 178.744 178.746-178.744c12.002-12.004 28.28-18.746 45.254-18.746h128v-160l224 224-224 224v-160z" />
<glyph unicode="&#xe921;" glyph-name="arrow-up-left" d="M0 160l256 256 544-544 224 224-544 544 255.998 256h-735.998v-736z" />
<glyph unicode="&#xe922;" glyph-name="arrow-up" d="M512 864l-480-480h288v-512h384v512h288z" />
<glyph unicode="&#xe923;" glyph-name="arrow-up-right" d="M288 896l256-256-544-544 224-224 544 544 256-255.998v735.998h-736z" />
<glyph unicode="&#xe924;" glyph-name="arrow-right" d="M992 384l-480 480v-288h-512v-384h512v-288z" />
<glyph unicode="&#xe925;" glyph-name="arrow-down-right" d="M1024 608l-256-256-544 544-224-224 544-544-255.998-256h735.998v736z" />
<glyph unicode="&#xe926;" glyph-name="arrow-down" d="M512-96l480 480h-288v512h-384v-512h-288z" />
<glyph unicode="&#xe927;" glyph-name="arrow-down-left" d="M736-128l-256 256 544 544-224 224-544-544-256 255.998v-735.998h736z" />
<glyph unicode="&#xe928;" glyph-name="arrow-left" d="M32 384l480-480v288h512v384h-512v288z" />
<glyph unicode="&#xe929;" glyph-name="arrow-up-left2" d="M877.254 109.254l-530.744 530.746h229.49c35.346 0 64 28.654 64 64s-28.654 64-64 64h-384c-25.886 0-49.222-15.592-59.128-39.508-3.282-7.924-4.84-16.242-4.838-24.492h-0.034v-384c0-35.346 28.654-64 64-64s64 28.654 64 64v229.49l530.746-530.744c12.496-12.498 28.876-18.746 45.254-18.746s32.758 6.248 45.254 18.746c24.994 24.992 24.994 65.516 0 90.508z" />
<glyph unicode="&#xe92a;" glyph-name="arrow-up2" d="M877.254 493.254l-320 320c-24.992 24.994-65.514 24.994-90.508 0l-320-320c-24.994-24.994-24.994-65.516 0-90.51 24.994-24.996 65.516-24.996 90.51 0l210.744 210.746v-613.49c0-35.346 28.654-64 64-64s64 28.654 64 64v613.49l210.746-210.746c12.496-12.496 28.876-18.744 45.254-18.744s32.758 6.248 45.254 18.746c24.994 24.994 24.994 65.514 0 90.508z" />
<glyph unicode="&#xe92b;" glyph-name="arrow-up-right2" d="M237.254 18.746l530.746 530.744v-229.49c0-35.346 28.654-64 64-64s64 28.654 64 64v384c0 25.884-15.594 49.222-39.508 59.126-7.924 3.284-16.242 4.84-24.492 4.838v0.036h-384c-35.346 0-64-28.654-64-64 0-35.348 28.654-64 64-64h229.49l-530.744-530.746c-12.498-12.496-18.746-28.876-18.746-45.254s6.248-32.758 18.746-45.254c24.992-24.994 65.516-24.994 90.508 0z" />
<glyph unicode="&#xe92c;" glyph-name="arrow-right2" d="M621.254 18.746l320 320c24.994 24.992 24.994 65.516 0 90.51l-320 320c-24.994 24.992-65.516 24.992-90.51 0-24.994-24.994-24.994-65.516 0-90.51l210.746-210.746h-613.49c-35.346 0-64-28.654-64-64s28.654-64 64-64h613.49l-210.746-210.746c-12.496-12.496-18.744-28.876-18.744-45.254s6.248-32.758 18.744-45.254c24.994-24.994 65.516-24.994 90.51 0z" />
<glyph unicode="&#xe92d;" glyph-name="arrow-down-right2" d="M146.746 658.746l530.742-530.746h-229.488c-35.346 0-64-28.654-64-64s28.654-64 64-64h384c25.884 0 49.222 15.594 59.126 39.508 3.284 7.924 4.84 16.242 4.838 24.492h0.036v384c0 35.346-28.654 64-64 64-35.348 0-64-28.654-64-64v-229.49l-530.746 530.744c-12.496 12.498-28.874 18.746-45.254 18.746s-32.758-6.248-45.254-18.746c-24.994-24.992-24.994-65.516 0-90.508z" />
<glyph unicode="&#xe92e;" glyph-name="arrow-down2" d="M877.254 274.746l-320-320c-24.992-24.994-65.514-24.994-90.508 0l-320 320c-24.994 24.994-24.994 65.516 0 90.51 24.994 24.996 65.516 24.996 90.51 0l210.744-210.746v613.49c0 35.346 28.654 64 64 64s64-28.654 64-64v-613.49l210.746 210.746c12.496 12.496 28.876 18.744 45.254 18.744s32.758-6.248 45.254-18.746c24.994-24.994 24.994-65.514 0-90.508z" />
<glyph unicode="&#xe92f;" glyph-name="arrow-down-left2" d="M786.744 749.256l-530.744-530.744v229.49c0 35.346-28.654 64-64 64s-64-28.654-64-64v-384.002c0-25.886 15.592-49.222 39.508-59.128 7.924-3.282 16.242-4.84 24.492-4.836v-0.036l384 0.002c35.344 0 64 28.654 64 63.998 0 35.348-28.656 64-64 64h-229.49l530.744 530.746c12.496 12.496 18.746 28.876 18.746 45.256 0 16.376-6.25 32.758-18.746 45.254-24.992 24.992-65.518 24.992-90.51 0v0z" />
<glyph unicode="&#xe930;" glyph-name="arrow-left2" d="M402.746 18.746l-320 320c-24.994 24.992-24.994 65.516 0 90.51l320 320c24.994 24.992 65.516 24.992 90.51 0 24.994-24.994 24.994-65.516 0-90.51l-210.746-210.746h613.49c35.346 0 64-28.654 64-64s-28.654-64-64-64h-613.49l210.746-210.746c12.496-12.496 18.744-28.876 18.744-45.254s-6.248-32.758-18.744-45.254c-24.994-24.994-65.516-24.994-90.51 0z" />
<glyph unicode="&#xe931;" glyph-name="circle-up" d="M0 384c0-282.77 229.23-512 512-512s512 229.23 512 512-229.23 512-512 512-512-229.23-512-512zM928 384c0-229.75-186.25-416-416-416s-416 186.25-416 416 186.25 416 416 416 416-186.25 416-416zM706.744 226.744l90.512 90.512-285.256 285.254-285.254-285.256 90.508-90.508 194.746 194.744z" />
<glyph unicode="&#xe932;" glyph-name="maharajji" horiz-adv-x="1353" d="M103.747 849.987c-19.402-10.509-35.032-25.869-42.307-41.229-8.084-17.516-10.24-41.229-4.042-47.697 17.246-18.324 31.798-37.457 29.912-40.152-1.078-1.886-0.808-2.695 0.808-1.617 1.347 0.808 5.389-3.234 8.623-9.162s9.701-14.552 14.013-19.402c11.318-12.126 12.665-15.629 9.971-25.331-1.617-6.737-4.312-9.162-10.779-11.048-5.928-1.617-9.162-4.312-10.24-8.893-1.078-4.042-3.503-6.198-6.467-5.928-3.234 0.269-6.467-3.503-9.971-10.779-6.198-14.013-6.467-25.061-0.808-27.217 2.964-1.078 3.773-3.773 2.425-9.432-0.808-4.312-0.539-8.623 1.078-9.432 1.617-1.078 2.156-3.773 1.347-6.467-1.347-3.503-1.078-3.773 1.078-0.808s3.503 2.156 7.276-3.234c4.312-7.006 4.312-8.623-6.198-48.236-30.72-116.682-42.577-180.547-43.385-237.137l-0.539-25.869 10.779-8.893c5.928-4.581 10.24-9.701 9.162-11.318-0.808-1.617-0.269-1.886 1.617-0.808 1.617 1.078 6.198-0.269 10.509-3.234 13.474-9.701 67.368-25.6 132.042-38.804 26.139-5.389 27.486-5.928 27.756-12.665 0.808-14.552 0.269-45.811-1.617-82.459-1.617-36.648-2.425-46.619-5.659-65.752-0.808-5.12-2.156-14.282-2.695-20.211-1.886-18.055-16.977-99.705-25.6-138.779-4.312-19.941-7.815-36.648-7.815-37.187s39.343-0.808 87.309-0.808h87.579l1.347 11.587c2.156 17.246 4.851 42.577 5.928 53.086 0.269 5.12 1.617 18.055 2.425 28.295 4.312 44.733 6.198 191.057 2.964 222.855-1.078 9.432-0.539 15.629 1.078 15.629 1.347 0 1.886 1.886 0.808 4.312-1.347 3.503-1.886 3.503-3.773 0.539-1.886-2.695-2.425-2.425-2.425 1.078 0 2.425-0.539 5.928-1.347 8.084-1.078 2.695 1.617 3.503 10.509 3.503 6.737-0.269 12.935-1.078 14.013-2.156s4.581-1.886 7.545-1.617c4.851 0.269 4.851 0.539-1.078 2.425s-5.659 2.156 3.503 2.425l9.971 0.269v-30.181c0-50.392 9.971-99.166 24.522-119.377 5.389-7.276 9.971-19.941 14.552-40.421 6.198-25.869 7.006-36.109 7.276-78.147 0.269-26.678-0.539-56.051-1.617-65.213l-2.156-16.977h379.688l3.234 9.971c21.827 68.716 37.996 133.659 37.996 154.139 0 5.659 2.425 11.857 7.006 16.977 9.701 11.857 17.785 29.103 29.373 62.787 5.659 16.438 10.779 30.181 11.318 30.72 1.617 2.425 15.091-12.126 27.756-29.912l12.935-18.324-6.467-22.097c-17.516-59.823-37.457-144.168-40.691-171.924-0.539-6.737-2.156-16.707-3.503-22.366l-2.156-9.971h59.284c37.457 0 58.476 1.078 57.398 2.695-1.617 2.695-2.156 84.345-0.269 92.968 1.347 6.737 5.12 38.804 5.389 45.272 0 2.425 0.539 4.581 0.808 4.581 0.539 0 7.006-12.935 14.552-28.564 12.126-25.061 16.707-31.798 38.265-53.625s26.678-25.869 39.343-29.373c45.541-13.204 68.177 4.042 81.651 62.248 4.581 20.48 5.389 32.876 5.389 91.082-0.269 73.297-2.425 95.124-16.707 157.373-4.312 19.672-8.084 36.918-8.084 38.265s2.425 2.425 5.659 2.425c2.964 0 8.893 4.042 13.474 8.623 4.312 4.851 7.815 7.545 7.815 6.198 0.269-1.617 1.886 0.269 4.042 4.042 2.425 4.581 3.234 11.318 2.156 20.211-1.617 14.821-3.234 17.516-10.509 18.594-2.964 0.539-5.12 2.156-5.12 4.042 0 5.659-9.971 11.048-17.246 9.432-5.389-1.078-6.198-0.808-2.964 1.347 2.425 1.886 2.695 2.964 0.808 2.964-7.276 0 0.269 15.629 14.821 30.181 11.048 11.587 16.707 15.36 20.749 14.282 2.964-0.808 3.773-0.539 1.886 0.269-2.695 1.347-2.425 2.695 1.078 6.737 5.12 5.659 10.779 7.006 7.545 1.886-1.078-1.886-0.808-2.156 1.347-1.078 1.617 1.078 2.425 2.964 1.617 4.042-0.539 1.347 1.347 4.581 4.581 7.276 2.964 2.964 9.432 10.779 14.282 17.785 4.581 7.276 9.432 12.126 10.509 11.048s1.078-0.269 0.269 2.156c-0.808 2.425 3.234 9.162 10.779 17.246 6.737 7.545 14.821 18.324 18.055 24.253 9.971 18.594 9.432 60.632-0.808 86.771-1.617 4.312-3.773 5.659-7.006 4.312-7.006-2.425-16.977-14.282-16.977-19.941 0-4.312-0.808-4.042-7.006 1.617-17.516 16.438-32.876-0.539-21.019-23.444 4.042-7.815 4.042-8.354-2.964-15.629-5.928-5.928-6.737-9.162-5.389-16.438 1.347-8.084 0.269-10.509-8.623-19.133-22.636-22.366-37.996-34.762-39.882-31.798-2.695 4.312 4.042 11.318 9.162 9.432 2.156-0.808 3.234-0.808 2.156 0.269-0.808 1.078 0.539 5.12 3.503 9.162 2.964 4.312 5.389 8.623 5.389 9.971 0 1.078 1.886 5.659 4.312 10.24 2.156 4.312 3.234 7.006 2.156 5.928s-3.503 1.617-5.389 6.198c-6.467 15.36-19.941 9.432-40.421-17.785-10.24-13.743-20.48-23.714-30.451-30.181-29.373-18.324-43.385-36.648-43.385-56.32 0.269-5.659 2.425-19.402 4.851-30.451l4.851-20.211-9.701-2.695c-5.389-1.617-10.509-5.389-12.126-8.623-1.617-3.773-4.581-5.659-7.815-5.389-8.084 0.808-12.665-17.516-6.198-24.522 4.042-4.581 4.042-5.12 0-9.432-4.312-4.312-4.312-5.12 1.078-11.857 2.964-4.312 7.545-7.276 9.701-6.737 2.425 0.269 5.659-1.886 7.276-4.851s5.12-5.389 8.084-5.389c10.24 0 13.743-25.061 9.162-71.411l-1.617-18.863-5.389 13.474c-4.581 11.318-4.851 14.821-2.156 22.905 3.503 10.509 5.389 6.467-26.947 53.895-2.695 3.773-8.084 12.665-12.126 19.941-6.467 11.587-7.815 12.665-10.779 8.893-2.695-3.773-4.042-1.886-9.162 12.665-7.006 19.941-19.672 33.954-30.72 33.954-6.198 0-9.162 2.964-6.467 6.198 0.269 0.539-2.964 4.042-7.545 7.815-7.276 6.198-7.545 7.276-4.042 11.857 3.773 4.581 3.503 4.851-0.539 1.617-3.773-2.964-5.389-1.886-12.935 8.623-6.198 9.432-7.006 11.857-3.503 10.509 2.695-0.808 4.042-0.808 2.964 0.269-0.808 1.078-3.234 2.156-5.389 2.695-1.886 0.269-9.162 2.695-16.168 5.389-9.701 3.773-15.899 4.581-25.6 2.964-32.067-5.12-39.882-2.156-45.541 16.977-2.156 7.545-1.886 12.396 0.808 20.48 4.581 13.474 4.581 23.444-0.539 30.181-2.156 3.234-3.234 6.198-2.695 7.006 0.539 0.539-1.078 1.078-3.503 1.347-8.084 0.808-37.726 8.084-40.96 10.24-1.886 1.078-4.851 6.198-7.006 11.048-3.503 8.354-3.234 10.24 1.886 20.48 7.006 13.474 5.928 26.947-3.234 41.768-3.503 5.659-6.467 11.048-6.467 12.126 0 0.808-0.808 2.695-1.886 3.773-1.347 1.078-2.156 0.539-2.156-1.078 0-1.886-1.078-3.234-2.425-3.234-1.617 0-0.808 3.234 1.347 7.545 1.886 4.042 3.773 9.432 3.773 11.857 0 7.545-5.928 18.055-12.396 22.366-7.006 4.312-17.246 22.636-17.246 29.912 0 7.006-18.863 50.122-24.792 56.589-2.964 3.234-4.312 6.467-2.964 7.006 1.078 0.808 0.808 1.078-0.808 0.539-4.312-0.808-23.444 10.509-24.792 14.821-0.808 2.425 0 2.964 2.156 1.617 2.425-1.347 2.964-1.078 1.617 1.078-1.078 1.617-2.964 2.425-4.312 1.617-1.078-0.808-3.503 0.539-5.389 2.695-1.617 1.886-8.354 5.928-15.091 8.354-6.467 2.425-11.857 5.659-11.857 6.737 0 3.234 1.886 2.964 8.084-0.269 3.773-1.886 4.851-1.617 4.312 1.347-0.808 6.198-3.503 7.276-9.701 4.042-4.581-2.425-7.815-1.886-17.246 2.695-11.318 5.389-40.691 8.084-46.888 4.312-1.347-0.808-11.318-2.695-21.827-4.312-21.558-2.964-32.337-7.545-44.463-19.133-4.581-4.312-9.162-7.815-10.24-7.815s-4.581-5.12-7.815-11.318c-5.928-11.857-18.324-24.253-21.827-22.097-1.078 0.808-1.347-0.269-0.808-2.156 0.808-2.156-0.269-8.893-2.695-15.36-2.156-6.467-4.042-15.091-4.042-18.863 0-4.042-4.312-15.629-9.432-26.139-9.701-19.402-11.318-29.642-7.006-51.469 2.695-13.743-1.617-25.061-12.935-33.415-5.12-3.773-9.701-10.779-12.665-19.133-4.042-12.396-4.042-13.743 1.617-30.451 3.234-9.701 8.354-19.402 11.587-21.558 5.389-3.773 5.389-4.312 1.078-13.474-2.964-6.198-8.893-11.857-17.785-16.707-14.282-8.084-21.827-17.785-21.827-28.295 0-6.198-1.347-6.737-31.528-12.126-26.678-4.581-33.145-4.851-42.577-1.886-6.198 1.886-10.509 4.581-9.971 6.737 0.539 2.425-0.269 2.425-2.695 0.539-1.886-1.347-8.623-4.042-14.821-6.198-9.162-2.695-11.048-4.312-8.623-7.006 3.503-4.042 1.886-5.12-14.013-7.545-7.276-1.347-10.24-0.808-11.318 2.156-2.156 5.659-19.133 9.701-39.882 9.701-15.629 0-18.863-0.808-24.792-7.006-3.773-3.773-6.467-8.354-5.659-9.971 0.808-2.425-10.24-2.964-43.655-2.425-44.463 0.808-44.733 0.808-43.385 6.737 0.808 3.234 2.156 13.204 3.234 22.097s2.425 19.133 2.964 22.905c0.539 3.773 1.617 37.187 2.425 74.105 1.617 72.488 2.964 89.196 7.006 91.621 1.347 1.078 1.886 2.964 1.078 4.312-1.078 1.347 3.234 2.425 9.432 2.425 9.701 0 11.587 1.078 16.438 9.432 3.234 5.389 7.815 9.432 10.509 9.432 8.354 0 11.048 32.606 2.964 37.457-1.886 1.347-3.234 2.964-3.234 4.042 0.808 4.851 0 5.389-2.425 1.617-2.156-3.234-2.695-2.425-2.695 3.503 0 4.042-0.808 7.276-1.886 7.276-1.347 0-4.312 1.886-7.276 4.042-4.581 3.503-4.851 5.12-1.617 21.288 2.964 16.438 3.773 17.785 12.126 20.48 7.545 2.425 9.432 4.851 11.857 15.091 1.886 6.737 2.425 15.091 1.347 18.055-1.617 5.928-21.288 26.139-25.331 26.139-1.078 0-4.042 4.851-6.737 11.048-2.695 5.928-7.815 13.204-11.318 15.899-8.354 6.467-21.558 9.432-26.139 5.659-1.886-1.617-4.312-2.156-5.389-1.078s-1.078-0.269 0-3.234c1.886-5.12 1.886-5.12-3.503-0.539-2.964 2.425-6.467 4.581-8.084 4.581s-4.581 2.156-6.467 4.581c-2.695 2.964-2.695 3.773-0.269 2.425 1.617-1.078 3.234-0.539 3.234 0.808 0 1.617-1.617 2.964-3.773 2.964-8.354 0-9.162 19.941-1.347 36.379 4.581 9.971 5.12 12.935 2.425 16.168-5.389 6.467-9.971 4.851-23.444-8.623-12.126-12.396-12.396-12.396-7.276-3.503 2.964 5.12 7.815 10.779 11.048 12.126 5.12 2.695 5.928 9.432 2.156 19.672-1.347 4.042-11.587 4.042-18.863 0zM732.968-65.684c0-1.347-1.347-2.695-2.964-2.695-1.347 0-1.886 1.347-1.078 2.695 0.808 1.617 2.156 2.695 2.964 2.695 0.539 0 1.078-1.078 1.078-2.695zM750.754 673.213c-0.808-1.347 0.269-2.425 2.425-2.425s3.234 1.078 2.425 2.425c-0.808 1.078-1.886 2.156-2.425 2.156s-1.617-1.078-2.425-2.156zM386.695 359.815c-4.312-1.617-3.773-2.156 3.503-2.156 8.893-0.269 11.048 1.078 5.389 3.234-1.886 0.539-5.928 0.269-8.893-1.078zM288.337 357.389c5.389-3.503 8.893-3.503 6.737 0-0.808 1.617-3.773 2.695-6.198 2.695-4.042 0-4.042-0.539-0.539-2.695zM409.061 358.198c1.886-0.808 4.312-0.539 5.12 0.269 1.078 0.808-0.539 1.617-3.503 1.347-2.964 0-3.773-0.808-1.617-1.617zM312.589 354.425c0-1.347 1.347-1.886 2.695-1.078 1.617 0.808 2.695 2.156 2.695 2.964 0 0.539-1.078 1.078-2.695 1.078-1.347 0-2.695-1.347-2.695-2.964z" />
<glyph unicode="&#xe933;" glyph-name="swamiji" horiz-adv-x="1117" d="M480.917 841.379c-2.763-0.863-9.67-1.209-15.023-0.518-8.289 0.863-10.879 0.345-15.714-2.59-3.281-2.072-9.497-4.144-13.987-4.662-5.18-0.691-10.706-3.108-15.196-6.562-7.771-5.871-7.253-5.526-23.657-16.059-14.851-9.325-22.103-16.577-25.557-25.039-2.072-5.18-4.317-7.598-8.979-9.497-9.67-4.144-18.822-12.088-20.031-17.613-0.518-2.763-3.799-9.497-7.253-15.196-3.281-5.526-9.497-16.923-13.815-25.557-4.317-8.461-10.016-18.132-12.778-21.24-3.972-4.49-5.008-7.253-5.008-13.296 0-4.317 1.036-9.325 2.245-11.397 1.727-2.936 1.554-3.799-2.245-6.735-4.144-3.108-4.144-3.281-4.317-34.882-0.173-28.665-0.518-32.291-3.626-36.436-1.727-2.418-3.799-4.662-4.49-4.662s-3.799-2.245-6.907-5.18c-3.108-2.763-6.735-5.18-7.943-5.18-2.763 0-12.433-9.325-12.433-11.915 0-3.108 2.245-2.245 8.634 3.281 6.907 5.871 7.425 6.044 10.361 2.59 1.554-1.899 1.554-3.972-0.691-9.843-3.972-10.188-2.245-48.005 2.418-54.049 2.245-2.763 2.418-7.943 1.036-17.613-1.036-6.907-0.691-10.361 1.381-14.505 3.799-7.771 3.281-15.023-1.554-23.139-2.418-3.799-4.317-8.807-4.317-11.052s-2.072-7.771-4.49-12.26c-4.317-7.943-4.49-8.979-3.281-26.938 0.518-10.361 1.209-25.902 1.554-34.364 0.518-16.577 3.281-24.521 12.26-35.054 2.418-2.763 4.317-6.389 4.317-7.943 0-3.972 3.454-3.454 8.461 1.381 2.59 2.418 8.634 6.217 13.642 8.807 4.835 2.418 8.979 5.353 8.979 6.217 0 1.554 12.088 16.405 23.139 28.32 1.727 1.899 7.425 8.979 12.606 15.887 5.18 6.735 10.534 12.778 11.915 13.296 1.554 0.691 3.799-1.727 6.562-7.253 2.418-4.49 6.562-10.879 9.497-14.16l5.18-6.044 0.173 6.044c0 3.454 1.036 7.598 2.418 9.497 3.626 5.526 4.49 13.469 1.554 15.541-3.108 2.418-1.209 7.771 2.936 7.771 5.698 0 8.634-2.072 8.634-5.871 0-2.763 1.209-3.799 4.317-4.144 4.662-0.345 14.16-9.325 16.577-15.541 0.863-2.072 2.936-4.317 4.49-4.835 10.879-3.454 19.858-10.188 26.248-19.168 2.245-3.454 5.353-5.698 7.598-5.698 2.072 0 6.389-2.936 10.188-7.080 5.353-5.698 7.253-6.907 10.706-6.044 3.108 0.691 5.008 0.173 6.562-2.245 1.209-1.727 4.317-3.626 6.562-3.972 2.936-0.345 4.49-1.727 4.835-4.317 0.345-2.245 1.727-3.972 3.108-3.972s2.418-0.691 2.418-1.727c0-0.863 1.899-1.727 4.144-1.727s5.008-1.209 6.217-2.59c1.209-1.381 3.454-2.59 5.18-2.59s5.353-1.209 7.943-2.59c2.763-1.381 6.389-2.072 8.116-1.554 2.245 0.691 3.454 0 4.144-2.418 0.518-2.072 1.899-3.108 3.108-2.763 1.209 0.518 2.763 0 3.454-1.036 0.863-1.381 2.072-1.036 4.317 0.863 3.626 3.281 10.361 2.072 10.361-1.899 0-3.454 1.554-3.108 5.353 1.554l3.281 3.799 5.18-5.526c2.763-3.108 5.871-5.698 6.907-5.698 0.863 0 1.727-1.209 1.727-2.59 0-1.554 1.209-3.108 2.59-3.626 1.381-0.691 2.072-1.727 1.554-2.59-0.518-1.036-0.173-2.59 0.691-3.799 1.899-2.245 3.626-13.642 3.626-24.003 0.173-7.771 2.59-8.289 9.325-2.245 3.799 3.626 4.662 5.871 4.662 12.606 0 8.979 2.936 16.923 6.562 18.477 4.144 1.554 5.526-0.863 5.526-9.67v-8.461l7.425 1.036c9.325 1.554 11.57 3.281 11.57 10.016 0 2.936 0.691 6.389 1.381 7.598 1.899 2.763 6.907 1.036 8.116-3.108 1.727-5.698 7.080-9.152 10.879-7.080 2.763 1.381 3.799 4.317 4.662 11.742 1.381 12.088 5.526 24.693 8.807 25.902 4.835 1.727 7.943-4.144 6.907-13.296-1.036-9.497-3.799-15.887-10.188-23.485-2.245-2.763-7.080-10.879-10.879-17.959-3.626-7.080-7.943-13.987-9.497-15.023-8.634-6.217-20.204-19.34-21.24-23.83-2.418-10.188-17.959-26.766-31.428-33.673-4.662-2.418-8.634-4.835-8.979-5.526-0.345-0.863-1.727-1.381-3.108-1.381-3.799 0-58.539-26.248-61.129-29.183-0.518-0.518-2.418-1.899-4.144-2.936-5.698-2.936-5.353-5.871 0.518-5.871 2.936 0 5.353 0.863 5.353 1.727 0 1.036 2.418 1.727 5.18 1.727 7.771 0 45.761 13.124 59.575 20.549 40.062 21.585 45.588 25.039 65.619 40.753 8.634 6.735 26.766 20.204 40.407 30.047 28.838 20.894 34.709 27.802 34.709 40.235v8.461l-15.023 6.907c-15.369 7.080-19.34 10.361-19.513 16.059 0 6.217-6.907 17.959-13.296 22.794-3.281 2.59-9.497 5.353-13.642 6.217-5.18 1.209-9.152 3.626-13.296 8.116-7.771 8.634-9.67 9.152-18.477 5.18-9.152-4.144-11.57-4.144-13.815 0-2.763 5.353-2.072 8.461 5.871 25.902 9.152 20.204 11.57 30.91 10.188 45.415-0.863 10.879-0.863 11.052 6.907 22.449 4.49 6.389 10.534 16.405 13.642 22.449 5.353 10.188 5.698 11.915 5.526 28.147 0 13.124-0.863 19.513-3.626 26.766-5.18 14.16-6.562 31.255-2.936 42.134 1.554 4.835 3.454 9.67 4.144 10.534 0.863 1.036 3.626 7.943 6.217 15.541 4.662 12.778 5.008 15.541 4.835 38.163-0.173 23.83-0.345 24.348-6.562 38.853-3.454 8.116-6.217 15.887-6.217 17.268 0 4.317-7.253 24.521-10.361 29.183-1.727 2.418-5.18 8.461-7.771 13.642-6.907 13.815-23.83 35.572-46.106 59.23-16.577 17.613-21.412 21.758-32.464 27.284-26.248 13.124-34.364 15.541-55.085 16.232-10.361 0.518-20.549 1.554-22.449 2.59-3.972 2.245-4.317 2.245-11.397 0zM495.941 794.927c3.108-6.044 6.044-14.505 6.907-18.822 0.691-4.317 2.245-11.397 3.108-15.714 1.381-5.871 5.18-26.766 6.907-37.645 0-0.345 1.727-0.345 3.972 0 4.144 0.518 4.144 0.345 0.691 17.786-1.381 6.735-3.108 17.959-3.799 25.039-0.691 7.425-3.281 18.304-6.044 25.557-2.59 6.735-4.144 12.433-3.454 12.433 0.863 0 3.799-2.072 6.735-4.49s6.044-3.972 7.080-3.281c1.036 0.518 2.936-0.173 4.49-1.554 1.381-1.554 4.49-2.763 6.735-2.763 2.418 0 4.317-1.209 4.835-3.454s2.418-3.454 5.008-3.454c5.18 0 14.678-8.634 19.686-17.959 2.072-3.799 5.698-8.116 8.289-9.325 2.418-1.209 4.49-3.454 4.49-4.835 0-1.209 1.209-2.418 2.59-2.418s2.59-1.036 2.59-2.418c0-1.209 1.036-3.281 2.418-4.49 1.381-1.036 2.245-2.936 1.727-4.317-0.518-1.209-0.173-2.763 0.863-3.281 1.036-0.691 1.381-2.245 0.863-3.626-0.691-1.381-0.345-4.662 0.691-7.425 1.381-4.144 1.036-5.526-2.245-8.634-2.245-2.072-5.871-3.799-8.289-3.799-2.59 0-6.389-1.899-8.807-4.317s-5.526-4.317-7.080-4.317c-4.317 0-17.441-10.016-19.686-14.851-1.036-2.418-2.763-3.799-3.626-3.281-3.108 1.899-6.907-2.763-6.907-8.461s3.972-29.356 7.080-43.343c1.209-4.662 4.317-13.124 6.907-18.477 5.698-11.224 6.044-14.505 2.59-21.585-1.381-2.59-3.281-7.080-4.317-9.67-1.209-3.281-4.49-6.044-9.497-8.289-4.317-1.727-7.943-4.144-8.289-5.353-0.518-1.209-1.899-1.554-4.144-0.518-7.425 3.281-14.333 2.418-20.031-2.245-3.108-2.59-6.389-5.526-7.080-6.735s-3.281-2.245-5.698-2.245c-2.418 0-6.044-1.036-8.116-2.418s-7.598-3.799-12.433-5.353c-10.706-3.626-22.449-11.052-24.866-15.541-3.281-6.562-8.979-20.722-8.461-21.067 1.727-0.863-8.461-9.152-10.361-8.289-1.381 0.518-3.972-0.345-5.698-1.899-4.317-3.972-8.979-0.518-7.425 5.526 0.518 2.245 0.345 4.144-0.691 4.144-1.727 0-4.144 11.052-4.317 19.34 0 4.317-0.173 4.49-2.245 1.727-1.899-2.418-2.59-2.59-4.49-0.518-1.727 1.899-1.727 2.418 0 3.108 3.281 1.209 2.59 7.425-0.863 7.425-2.418 0-2.59 0.345-0.863 1.554 3.108 1.899 1.899 9.67-1.381 9.843-5.698 0.518-5.871 0.863-2.763 3.281 2.59 2.072 2.936 3.108 1.381 4.662s-2.763 0.863-5.526-2.59c-2.072-2.59-4.317-4.662-4.835-4.662-2.245 0-5.526 9.497-6.389 18.304-0.345 4.835-1.899 11.052-3.454 13.815-1.381 2.763-2.59 7.253-2.59 9.843 0 2.763-1.209 9.152-2.763 14.333-1.381 5.008-2.936 14.16-3.108 20.031-0.345 6.044-1.727 16.232-3.281 22.794-2.936 12.433-2.418 24.175 1.209 28.665 1.209 1.381 2.245 6.389 2.418 11.052s1.381 9.67 2.59 11.224c4.835 6.044 10.361 18.304 10.879 24.175 0.173 3.281 1.209 6.389 2.245 6.735s1.899 1.727 1.899 3.108c0 5.18 8.634 20.894 14.851 27.111 8.979 8.979 29.183 23.312 34.364 24.693 2.245 0.518 5.008 2.072 6.217 3.454 1.036 1.381 3.454 2.418 5.353 2.418s4.835 0.863 6.735 1.899c6.217 3.281 24.693 6.562 34.018 6.044l9.152-0.518 5.353-10.879zM362.631 767.471c0-1.036-0.691-2.245-1.727-2.763-0.863-0.518-1.727 0.173-1.727 1.554 0 1.554 0.863 2.763 1.727 2.763 1.036 0 1.727-0.691 1.727-1.554zM359.35 744.332c-2.763-2.763-4.49 0-1.727 3.281 1.554 1.899 2.59 2.072 2.936 0.691 0.345-1.036-0.173-2.936-1.209-3.972zM581.763 678.195c5.353-1.209 7.598-5.871 2.763-5.871-2.245 0-2.418-0.691-0.863-3.454 1.381-2.59 1.381-3.626-0.345-4.317-32.637-10.879-36.436-11.397-37.299-4.49-0.691 5.008 3.454 8.807 16.059 15.023 9.325 4.49 11.224 4.662 19.686 3.108zM575.029 657.128c0-2.245-2.072-3.799-3.799-2.763s-0.173 4.144 2.245 4.144c0.863 0 1.554-0.691 1.554-1.381zM326.368 656.092c0-1.899-3.281-2.59-4.317-1.036-0.518 0.863 0.173 1.727 1.554 1.727 1.554 0 2.763-0.345 2.763-0.691zM575.201 644.867c5.871-5.526 10.188-11.052 9.497-11.915-2.245-3.626 6.217-5.871 18.65-5.18l12.26 0.863v-31.428c0-33.673-1.036-37.817-8.461-36.436-1.899 0.518-4.317 0.863-5.353 0.863-1.554 0.173-9.152 6.217-17.268 13.815-7.943 7.598-21.931 32.982-25.384 46.106-1.899 7.425-4.49 15.714-6.044 18.477-2.418 4.835-2.245 5.18 2.245 10.016 2.59 2.763 5.698 5.008 6.907 5.008s6.907-4.662 12.951-10.188zM318.942 620.174c-0.518-1.381-1.036-0.863-1.036 1.036-0.173 1.899 0.345 2.936 0.863 2.245 0.518-0.518 0.691-2.072 0.173-3.281zM335.52 616.030c7.253-6.907 7.771-8.979 2.936-15.023-4.49-5.526-4.317-12.26 0.518-21.931 4.144-8.461 9.325-10.706 8.461-3.626-0.345 2.418 0.345 7.253 1.554 10.879 1.727 5.526 2.763 6.389 5.698 5.526 4.49-1.381 6.044-3.799 6.389-9.325 0.518-14.505 1.554-22.621 3.108-25.73 1.036-1.899 1.727-6.044 1.554-9.152s0.345-7.080 1.209-8.807c2.072-4.835-15.369-20.204-22.794-20.204-5.698 0-12.606 5.353-12.606 9.67 0 1.209-1.554 4.835-3.454 8.116-2.072 3.454-4.144 11.742-5.353 20.031-0.863 7.943-2.936 17.959-4.662 22.276-3.281 9.497-3.799 32.119-0.691 35.227 1.554 1.554 2.072 1.554 2.072-0.173 0-1.209 0.691-1.727 1.554-1.209s1.209 2.59 0.691 4.317c-0.691 2.936 0.173 3.799 6.389 5.18 0.518 0 3.799-2.59 7.425-6.044zM345.363 598.589c0-0.863-0.691-2.59-1.727-3.972-1.899-3.108-4.317-1.209-2.936 2.59 1.036 2.59 4.662 3.626 4.662 1.381zM506.82 532.452c0.518-0.863 0.173-1.727-0.691-1.727-1.036 0-1.899 0.863-1.899 1.727 0 1.036 0.345 1.727 0.691 1.727 0.518 0 1.381-0.691 1.899-1.727zM547.227 525.717c1.554-1.036 1.727-1.899 0.345-2.59-2.763-1.899-2.245-7.943 0.691-7.943 1.381 0 2.59-0.518 2.59-1.036 0-2.418-6.217-5.698-10.361-5.871-2.59 0-5.526-1.036-6.562-2.072-1.554-1.554-7.943-2.245-18.477-2.418-17.959-0.173-21.585-1.727-20.204-8.634 0.863-4.317 0.691-4.317-8.461-3.108-10.361 1.381-14.16 4.662-12.778 10.706 0.518 2.245 0.173 5.18-0.863 6.389-1.036 1.381-1.727 4.144-1.381 6.389 0.518 3.281 1.899 4.144 9.152 5.008 4.835 0.691 11.224 1.899 14.505 2.936 3.108 1.036 8.979 1.554 12.951 1.036 3.799-0.345 12.606 0 19.168 0.691 16.75 2.245 16.923 2.245 19.686 0.518zM663.096 516.047c3.454-4.144 1.209-19.513-5.353-34.364-6.735-15.887-10.188-18.65-10.188-8.116 0 7.253 5.871 40.407 7.771 43.343 1.554 2.59 5.353 2.072 7.771-0.863zM631.495 393.962c-2.245-7.253-6.389-11.052-6.389-5.698 0 3.281 5.353 12.951 7.253 12.951 0.518 0 0.173-3.281-0.863-7.253zM620.444 303.649c0.691-1.381 0.345-2.936-0.518-3.454-1.036-0.691-1.727 0.518-1.727 2.418 0 4.317 1.036 4.662 2.245 1.036zM517.18 710.314c-1.381-2.245 0.691-5.526 2.763-4.317 2.072 1.381 2.072 6.044 0 6.044-1.036 0-2.245-0.691-2.763-1.727zM417.716 697.19c-12.433-8.461-13.815-10.016-8.116-8.979 3.108 0.518 5.008 0 5.698-1.727 0.863-2.072 1.554-1.899 4.835 1.209 4.662 4.317 6.907 4.49 9.843 1.036 1.727-2.245 1.554-2.59-1.554-2.59-2.072 0-3.626-1.036-3.626-2.59s-1.209-3.108-2.59-3.626c-3.799-1.554-3.108-4.144 0.863-4.144 3.454 0 3.454-0.173-0.691-7.771-2.418-4.317-3.799-7.771-2.936-7.771s1.899 1.209 2.418 2.59c0.691 1.381 3.972 4.317 7.598 6.735 5.526 3.626 10.534 4.835 30.565 7.080 13.296 1.381 25.73 2.072 27.456 1.554 2.936-0.863 3.281-0.518 2.072 2.072-0.691 1.899-1.727 5.008-2.245 7.253-1.381 7.080-14.505 11.224-28.147 9.152-5.18-0.863-8.979-0.691-10.188 0.518s-1.727 1.209-1.727 0c0-2.418-7.771-5.871-12.951-5.871s-5.353 0.863-0.863 5.526c4.662 5.008 4.317 6.562-1.554 6.562-2.936 0-8.807-2.59-14.16-6.217zM462.613 665.417c-2.59-0.691-6.217-2.936-8.289-5.008-2.245-2.245-5.871-3.626-9.843-3.626-9.497 0-24.521-7.598-25.902-13.124-1.381-5.18 1.209-7.598 8.461-7.598 4.144 0 4.662 0.518 3.799 3.972-0.691 2.418-0.173 4.835 1.381 6.044 1.899 1.554 3.281 1.209 6.389-2.245 6.389-6.907 19.686-5.698 22.621 1.899 0.691 2.245 2.763 4.144 4.144 4.144 4.144 0 5.18-5.008 1.554-7.771-4.317-3.281-1.899-3.108 10.534 0.691 8.807 2.59 10.361 3.626 10.016 6.735-0.345 2.418 0.518 3.799 2.072 3.799 3.454 0 3.281 5.008-0.173 6.389-1.381 0.518-3.454 0.173-4.662-1.036-1.381-1.381-2.936-0.863-6.217 2.245-5.526 5.008-10.016 6.389-15.887 4.49zM445 649.53c-0.518-1.209-0.863-0.345-0.863 2.072s0.345 3.281 0.863 2.245c0.345-1.209 0.345-3.281 0-4.317zM494.905 581.493c-3.799-3.799-3.626-3.972 4.662-2.936 10.879 1.209 12.951 2.072 9.843 3.972-3.972 2.59-11.57 2.072-14.505-1.036zM348.816 564.398c0-3.108 3.281-6.907 4.49-5.526 0.691 0.691 0 2.59-1.554 4.144-1.554 1.727-2.936 2.245-2.936 1.381zM343.118 553.001c-1.554-1.036-2.936-2.763-2.936-3.972 0-1.381-1.209-3.281-2.59-4.49-3.281-2.763-3.281-5.18-0.173-5.18 1.209 0 3.281 2.59 4.662 5.698 1.209 2.936 2.936 6.044 3.972 6.735 2.936 1.899 0.345 2.936-2.936 1.209zM352.615 549.72c1.209-1.899 2.763-3.454 3.626-3.454 0.691 0 0.518 1.554-0.518 3.454s-2.59 3.454-3.454 3.454c-1.036 0-0.863-1.554 0.345-3.454zM263.857 558.872c-0.345-1.727-0.173-5.008 0.518-7.425 1.036-3.454 1.209-2.936 1.381 3.108 0.173 7.598-0.691 9.325-1.899 4.317zM347.089 340.948c0-7.425 2.245-17.786 5.526-26.075 1.036-2.418 2.418-5.871 3.108-7.771 4.317-10.879 13.987-29.874 16.232-31.773 3.626-2.936 3.454-1.554-0.345 5.353-1.727 3.108-3.626 7.253-4.317 9.152-0.518 1.899-2.418 7.771-4.317 12.951s-4.144 12.606-5.353 16.405c-7.771 27.974-10.534 33.673-10.534 21.758zM537.039 311.593c0-0.691 1.036-4.662 2.418-8.979 4.317-14.333 6.217-24.003 6.217-32.982 0-8.634 3.108-20.376 5.353-20.376 1.036 0 3.972 31.601 3.454 40.58-0.345 7.253-3.626 15.023-7.771 18.132-4.662 3.454-9.67 5.353-9.67 3.626zM440.337 294.152c0-0.863 0.863-1.727 1.899-1.727 0.863 0 1.209 0.863 0.691 1.727-0.518 1.036-1.381 1.727-1.899 1.727-0.345 0-0.691-0.691-0.691-1.727zM448.108 283.791c0.863-1.381 5.353-7.425 10.016-13.642s9.497-13.296 10.706-15.714c2.418-4.49 13.124-37.299 16.232-49.387 1.554-5.871 2.763-7.425 6.735-8.116 2.59-0.518 6.044-1.554 7.771-2.072 2.072-0.863 2.936-0.345 2.936 1.727 0 3.281-7.080 24.175-11.397 33.155-2.763 6.044-25.902 37.817-31.773 43.688-1.899 1.899-3.454 3.972-3.454 4.835 0 0.691-2.072 2.763-4.662 4.49-2.418 1.899-3.972 2.245-3.108 1.036zM740.285 284.309c-0.345-0.863-1.209-3.454-1.899-6.044-1.381-6.217-17.959-21.931-41.789-39.889-20.376-15.369-33.846-25.73-35.227-27.111-0.518-0.518-2.072-1.554-3.799-2.59-6.044-3.626-48.869-34.364-52.15-37.472-1.899-1.727-3.972-3.108-4.662-3.108s-6.217-3.108-12.088-6.907c-6.044-3.799-17.613-10.016-25.73-13.815s-16.577-8.116-18.995-9.325c-2.418-1.381-7.080-3.799-10.361-5.698-3.281-1.727-6.389-3.454-6.907-3.972s-3.626-2.936-6.907-5.18c-3.281-2.245-6.389-4.662-6.907-5.18-2.763-2.936-15.714-12.088-22.449-15.714-4.317-2.245-8.116-4.835-8.461-5.526-0.345-0.863-2.418-2.072-4.835-3.108-2.245-0.863-3.626-2.245-3.108-3.281 0.518-0.863 0.173-1.727-0.691-1.727-1.899 0-6.735-3.626-13.469-9.843-2.245-2.245-4.49-3.972-5.008-3.972-2.245 0-28.32-28.492-28.32-30.91 0-1.036-1.554-2.59-3.454-3.626s-3.454-2.936-3.454-4.317c0-1.381-1.381-3.454-3.281-4.662-1.727-1.209-5.698-5.871-8.634-10.361-3.108-4.49-6.562-8.807-7.598-9.497-1.209-0.863-3.626-3.626-5.353-6.562-1.899-2.763-3.972-5.871-4.835-6.907-7.080-8.807-15.196-19.686-15.196-20.722 0-0.691-2.763-4.317-6.044-7.943-3.281-3.799-6.044-7.598-6.044-8.634s-1.899-4.317-4.317-7.425c-2.418-3.108-4.317-7.771-4.317-10.188 0-3.281-0.863-4.662-3.108-4.662-1.727 0-3.972-2.245-5.353-5.526-5.353-12.778-7.598-16.923-9.843-18.822-1.381-1.036-2.418-3.108-2.418-4.317 0-1.381-0.691-3.799-1.727-5.526-0.863-1.554-4.317-8.979-7.771-16.232-5.698-12.26-6.389-16.923-2.763-16.923 2.763 0 8.979 7.425 8.461 10.016-0.345 1.554 2.245 5.698 5.698 9.152 5.871 6.044 8.461 10.016 9.497 15.023 0.173 1.036 3.454 5.698 7.080 10.361 3.799 4.49 9.497 11.915 12.606 16.577s10.879 14.505 17.095 21.758c6.217 7.425 18.822 22.276 27.802 32.982 27.629 32.809 52.668 60.784 61.82 69.073 9.843 8.807 32.464 24.348 47.833 32.637 5.698 3.108 11.224 6.217 12.088 6.907 2.072 1.554 15.541 8.979 34.536 18.995 40.925 21.585 64.41 39.199 98.428 73.217 13.296 13.469 26.593 25.557 29.356 26.938 2.936 1.381 9.152 5.008 13.987 7.943 10.706 6.562 15.541 8.289 17.095 5.871 1.381-2.245-17.268-31.083-26.766-41.271-1.381-1.554-4.49-5.526-6.735-8.807-4.317-6.217-45.933-47.833-63.201-63.029-27.974-24.521-85.477-80.988-85.477-83.75 0-1.036-0.691-1.727-1.554-1.727-1.381 0-13.987-11.224-13.987-12.606 0-0.173-7.598-8.289-16.75-17.613-9.325-9.497-21.585-22.794-27.284-29.356s-26.766-28.665-46.969-49.214c-20.204-20.376-43.516-44.034-51.804-52.668-8.461-8.634-18.65-18.477-22.967-22.103l-7.598-6.389h5.18c4.317 0 13.124 8.116 64.583 60.093 32.809 32.982 69.418 70.972 81.506 84.096 30.91 33.846 64.41 68.036 75.634 77.016 5.18 4.144 10.361 8.289 11.397 9.325 1.036 0.863 5.526 4.835 10.188 8.634s10.879 8.979 13.987 11.742c8.807 7.598 10.534 5.526 2.763-3.454-2.59-2.936-6.562-7.943-8.979-11.052s-7.771-9.497-11.915-14.16c-10.706-11.742-26.075-32.291-28.147-37.472-1.554-3.972-2.418-10.188-3.799-29.010-0.345-4.144-1.209-7.943-1.727-8.461-0.518-0.691-1.036-2.59-1.036-4.662 0-1.899-1.727-5.18-3.799-7.425-2.936-3.108-3.281-4.49-1.727-5.526 1.209-0.691 1.727-2.59 1.209-3.972-2.072-5.18 3.799-4.49 7.943 0.863 5.698 7.598 7.771 12.26 11.742 26.248 4.835 17.613 6.389 20.894 11.57 24.521 18.132 12.088 34.018 32.809 64.928 84.441 17.095 28.492 30.047 45.588 43.688 57.676l4.662 4.317-1.209-4.317c-0.691-2.418-2.072-4.49-2.763-4.835-0.863-0.345-1.554-1.899-1.554-3.454s-1.209-5.18-2.59-7.943c-1.381-2.59-2.59-6.044-2.59-7.253 0-1.381-0.691-2.418-1.727-2.418-0.863 0-1.727-1.209-1.727-2.763 0-1.381-1.727-6.217-3.799-10.706-1.899-4.49-4.144-10.361-5.008-13.296-2.072-8.116-9.67-25.557-23.139-53.531-19.168-39.199-40.062-84.096-41.271-88.413-0.518-2.245-1.554-5.526-2.072-7.425-1.381-5.008 2.936-4.317 8.289 1.209 2.245 2.763 6.907 9.152 10.016 14.333s6.217 9.843 6.735 10.361c2.418 1.727 17.441 23.83 17.441 25.557 0 1.036 1.727 3.972 3.972 6.735 8.807 10.706 37.472 63.892 37.472 69.418 0 2.245 5.18 12.088 7.080 13.124 0.863 0.691 1.554 2.936 1.554 5.353s0.863 5.871 1.899 7.771c0.863 1.899 2.072 7.253 2.245 11.742 0.691 8.289 5.008 19.686 9.152 24.003 1.209 1.209 2.245 4.144 2.245 6.562s1.209 4.662 2.59 5.18c1.381 0.691 3.799 3.626 5.353 6.907 2.763 5.698 7.253 8.461 5.353 3.281-0.691-1.381-0.345-2.936 0.691-3.626 1.036-0.518 1.381-2.072 0.863-3.454s-0.173-2.418 0.691-2.418c1.036 0 1.727 1.381 1.727 3.108 0 2.418 0.345 2.418 1.554 0.518 0.863-1.381 1.209-3.454 0.691-4.662-0.345-1.036 0-2.59 1.036-3.281 1.036-0.518 1.899 0.345 2.072 2.072 0.173 3.281 0.345 4.662 3.281 15.196 3.454 12.26 6.735 32.464 6.735 42.652 0.173 14.16 4.835 23.657 11.57 23.83 3.454 0 7.253-21.412 4.144-23.312-1.036-0.691-1.727-4.835-1.727-9.497 0-6.562 0.691-8.979 3.281-10.188 2.763-1.554 3.454-1.209 4.317 2.072 0.518 2.59 3.799 5.526 8.807 7.943 4.317 2.072 7.771 4.662 7.771 5.526 0 2.245 5.871 1.899 8.289-0.518 1.209-1.209 2.072-3.108 2.072-4.49s2.072-4.835 4.49-7.771c9.67-11.397 2.936-33.155-25.211-81.506-2.245-3.799-10.016-17.786-17.268-31.083-7.425-13.296-18.65-33.5-25.039-44.897-6.562-11.397-13.815-24.175-16.232-28.492-2.245-4.317-6.044-10.188-8.289-13.124s-3.972-5.871-3.972-6.562c0-0.691-2.245-4.49-5.008-8.461-2.59-3.972-15.714-23.485-28.838-43.17-13.296-19.858-25.73-38.508-27.974-41.444-10.534-15.023-33.155-45.070-34.709-46.106-0.518-0.518-3.281-3.799-5.871-7.253l-4.835-6.562h37.645c36.781 0 37.817 0.173 40.062 3.799 2.072 3.281 7.598 13.296 12.951 22.967 1.036 1.899 2.245 3.799 2.763 4.317 9.325 8.634 37.99 64.065 46.797 90.312 2.936 8.634 9.152 22.449 13.815 30.565 8.979 15.714 12.26 23.657 19.513 46.451 3.108 9.497 7.943 19.168 14.16 28.32 5.008 7.598 9.325 15.541 9.325 17.613s1.036 4.835 2.418 5.871c2.072 1.727 2.59 1.381 3.108-1.899l0.863-3.972 1.899 4.317c1.899 3.972 2.072 3.626 1.381-3.454-0.518-5.526 0-8.634 1.899-10.706 1.554-1.727 1.899-3.108 1.036-3.108-1.036 0-2.418-2.59-2.936-5.698-0.691-3.626-2.59-6.735-5.18-8.116-5.698-2.936-7.253-8.634-2.072-8.116 3.281 0.345 3.626-0.518 3.626-8.807 0-7.943 0.518-9.325 4.317-11.224 3.972-1.899 4.49-3.454 5.353-15.887 0.691-7.598 0.691-18.822 0.173-25.039s-0.863-13.469-0.691-16.232c0.173-2.763-0.863-6.562-2.245-8.461-1.381-2.072-2.59-6.562-2.59-10.188s-0.691-6.562-1.554-6.562c-0.863 0-2.072-2.072-2.763-4.662-0.518-2.59-2.418-7.425-3.799-10.706-3.281-7.425-3.454-7.943-3.799-12.088 0-1.899-1.381-4.662-2.936-6.044-1.381-1.554-2.245-2.763-1.727-2.763s-0.518-2.763-2.418-6.044c-1.899-3.454-3.454-7.598-3.454-9.152 0-1.727-0.691-3.799-1.554-4.835-1.036-0.863-2.072-3.626-2.59-6.044-0.345-2.59-2.072-7.080-3.626-10.361-1.727-3.108-3.626-7.598-4.317-10.016-0.863-2.418-3.108-8.807-5.008-13.987-2.072-5.18-3.626-9.67-3.626-9.843 0-0.345 10.534-0.518 23.312-0.518h23.312v6.735c0 5.871 0.691 6.907 5.698 8.979 2.936 1.381 6.044 2.418 6.907 2.59 0.691 0.173 1.381 0.345 1.727 0.691 0.173 0.173 2.072 0.518 4.317 0.691 8.461 1.036 10.879 6.044 12.433 25.902 1.209 13.815 3.281 24.348 8.634 41.271 11.742 37.645 15.369 50.078 16.577 57.33l1.381 6.907 1.036-6.044c0.518-3.281 0.345-8.289-0.345-11.052-0.863-3.454-0.345-7.080 2.245-12.606 2.245-5.008 2.936-8.461 1.899-9.67-0.863-1.209-2.072-4.835-2.418-8.116-0.518-3.281-2.936-15.369-5.353-26.766-2.59-11.397-5.353-25.73-6.389-31.946-2.936-18.477-6.389-29.528-12.433-39.199l-3.454-5.698h44.724l1.899 6.735c1.209 3.626 2.072 8.116 2.072 10.016s0.518 3.972 1.209 4.662c2.59 2.59 5.698 14.678 6.735 25.902 0.518 6.562 2.072 13.642 3.626 16.059 4.317 6.389 5.008 40.062 1.209 52.322-2.072 7.080-3.108 17.441-3.454 40.58-0.691 29.701-1.381 34.709-7.771 55.431-0.863 2.936-1.554 7.080-1.554 9.152 0 7.253-10.361 59.748-13.987 70.627-2.072 6.044-7.425 18.995-11.915 28.492-5.871 12.26-7.771 18.304-6.562 19.686 1.036 1.381 1.036 2.763-0.173 4.317-1.036 1.209-4.144 5.008-7.080 8.461-2.763 3.454-5.18 6.907-5.18 7.598 0 3.281-27.629 33.155-40.58 43.861-8.807 7.253-14.16 9.152-12.26 4.49 1.209-3.281-0.518-8.116-2.59-6.907-0.863 0.518-2.936 4.317-4.835 8.634-3.281 7.253-3.626 7.598-17.959 11.915-13.296 4.144-15.541 5.353-23.312 13.987-4.835 5.18-9.152 8.979-9.497 8.289zM798.996 237.858c-0.518-0.518-2.072-0.691-3.281-0.173-1.381 0.518-0.863 1.036 1.036 1.036 1.899 0.173 2.936-0.345 2.245-0.863zM744.256 170.857c0-0.518-0.691-1.381-1.727-1.899-0.863-0.518-1.727-0.173-1.727 0.691 0 1.036 0.863 1.899 1.727 1.899 1.036 0 1.727-0.345 1.727-0.691zM870.314 112.318c0.173-3.108 1.209-9.843 2.418-15.023 1.381-5.698 1.727-12.606 1.036-17.268l-1.209-7.771-1.036 6.044c-4.317 21.412-5.698 42.307-2.936 40.58 1.036-0.518 1.727-3.626 1.727-6.562zM845.966 92.978c-1.036-5.526-1.554-11.915-1.036-14.16 0.345-2.245 0-3.972-0.691-3.972-2.418 0-1.899 24.866 0.518 27.284 3.108 3.108 3.281 1.727 1.209-9.152zM809.184 94.187c-2.072-1.899-3.108 1.209-1.727 5.18l1.381 3.972 0.691-3.972c0.345-2.245 0.173-4.49-0.345-5.18zM874.976 59.823c-0.345-2.763-0.691-0.863-0.691 3.799 0 4.835 0.345 6.907 0.691 4.835 0.345-2.245 0.345-6.044 0-8.634zM899.669 17.862c0-2.763-0.691-5.18-1.554-5.18-2.072 0-3.281 3.626-2.245 7.425 1.209 4.835 3.799 3.454 3.799-2.245zM598.859 236.994c-1.727-0.863-6.562-6.562-11.052-12.433-7.425-9.67-23.485-26.248-40.925-41.962-3.454-3.281-5.871-5.871-5.18-5.871 2.245 0 36.436 17.441 39.544 20.376 12.778 11.224 27.802 45.761 17.613 39.889zM788.808 195.896c-1.381-1.899-6.907-5.526-12.433-8.289-11.052-5.353-10.879-5.008-18.304-29.874-5.353-17.959-16.75-52.495-21.067-63.892-5.18-13.469-21.585-48.005-25.73-53.877-1.899-2.59-2.936-4.835-2.418-4.835 0.691 0-0.863-2.418-3.281-5.353s-4.49-5.871-4.49-6.562c0-0.691-1.554-2.936-3.454-5.008-2.072-2.072-2.936-3.799-2.245-3.799s-0.518-1.209-2.59-2.763c-2.072-1.381-3.799-3.626-3.799-4.835s-1.381-3.626-2.936-5.526c-1.727-1.727-6.562-7.598-10.879-12.778-16.232-20.204-38.681-42.48-49.732-49.732-2.59-1.554-6.562-5.18-8.979-7.943-5.871-6.562-8.807-9.497-17.095-16.577-3.799-3.281-7.080-6.562-7.080-7.253s-2.763-4.144-6.044-7.771c-5.526-5.871-9.152-10.188-27.284-32.291-3.108-3.626-7.943-8.979-11.052-11.915-3.108-2.763-5.18-5.871-4.662-6.562 0.518-0.863-0.691-2.418-2.763-3.626-1.899-1.209-3.454-2.763-3.454-3.454 0-0.863 8.807-1.381 19.513-1.381h19.513l7.771 7.425c4.144 4.144 12.606 13.987 18.822 22.103 20.549 26.766 36.954 49.041 42.998 57.676 3.281 4.835 6.389 8.979 6.907 9.497s3.454 4.317 6.217 8.634c2.763 4.317 5.526 8.116 6.217 8.634 5.526 5.008 74.253 109.653 93.593 142.462 5.526 9.67 16.75 45.415 16.75 53.877 0 5.008 7.598 21.931 12.26 27.284 4.835 5.353 10.188 15.887 10.188 19.858 0 2.936-6.562 1.899-8.979-1.554zM467.966 194.169c0-0.863 0.863-2.245 1.727-2.763 1.036-0.518 1.727-0.345 1.727 0.691 0 0.863-0.691 2.245-1.727 2.763-0.863 0.518-1.727 0.345-1.727-0.691zM532.722 188.816c-1.727-1.899-3.799-3.454-4.662-3.454s-3.626-1.899-6.044-4.144c-2.59-2.418-5.353-3.799-6.217-3.281s-2.072 0.173-2.763-0.691c-1.381-2.072-15.541-10.188-20.722-11.742s-10.534-6.217-10.534-8.979c0-1.554-3.281-2.245-10.706-2.418-6.044 0-12.433-0.345-14.333-0.691-14.333-2.763-110.516 0-121.222 3.281-5.698 1.727-66.828 1.899-69.591 0.173-2.936-1.899 5.008-2.936 48.351-5.871 13.815-0.863 34.018-2.418 44.897-3.454s25.384-2.245 31.946-2.763c23.139-2.072 54.74-6.389 64.065-8.807 13.124-3.454 14.678-3.108 23.312 3.281 11.742 8.979 24.693 17.786 27.111 18.65 2.763 0.863 33.155 31.083 33.155 32.982 0 2.418-2.763 1.554-6.044-2.072zM471.42 186.053c0-5.353 5.526-14.505 8.807-14.505 1.899 0 3.281 0.345 3.281 0.863 0 1.899-4.144 9.497-5.18 9.497-0.691 0-1.727 1.554-2.245 3.454-1.036 4.144-4.662 4.662-4.662 0.691zM913.657 106.447c1.036-2.59 2.418-5.526 3.281-6.562 5.353-6.735 17.095-49.56 20.722-76.843 1.899-13.469 2.763-79.779 1.036-82.542-0.345-0.691-1.036-5.871-1.727-11.742-0.518-5.698-2.072-16.405-3.626-23.83-1.381-7.425-2.072-14.16-1.554-15.023 0.345-0.863-0.345-3.281-1.727-5.353-1.381-2.245-3.799-10.879-5.18-19.34-1.554-8.461-3.454-16.232-4.49-17.268-0.863-0.863-1.727-3.108-1.727-4.835 0-2.936 3.108-3.108 51.804-3.108 50.078 0 51.804 0.173 51.804 3.281 0 1.899-0.691 5.18-1.554 7.598-0.863 2.245-2.072 12.088-2.59 22.103-0.691 9.843-1.554 22.967-2.245 29.183-2.072 22.276-24.175 78.052-48.869 123.467-2.59 4.835-7.253 13.642-10.534 19.858-6.735 13.296-23.139 38.853-27.284 42.998-4.49 4.49-13.987 18.65-13.987 20.722 0 1.036-0.691 1.899-1.727 1.899s-1.036-1.727 0.173-4.662zM373.855 64.486c-3.799-1.727-8.289-3.281-9.843-3.281-1.727-0.173-3.108-0.863-3.108-1.899 0-0.863-2.936-1.727-6.389-1.899-5.353 0-5.871-0.345-3.108-1.554 3.108-1.381 2.936-1.554-1.209-1.554-3.281-0.173-4.835-1.036-4.835-2.936 0-1.727-1.036-2.418-2.59-1.727-1.381 0.518-2.418 0-2.072-1.036 0.173-1.209-2.245-2.245-5.698-2.59-7.771-0.691-10.361-1.727-10.361-3.972 0-0.863 2.763-1.727 6.044-1.727s6.044 0.691 6.044 1.554c0 0.863 1.727 1.554 3.972 1.554 3.454 0 42.652 21.758 42.652 23.657 0 1.381-2.245 0.691-9.497-2.59zM550.335-28.244c-0.691-0.518-1.209-1.899-1.209-2.936s0.863-0.863 2.072 0.345c1.036 1.036 1.554 2.418 1.209 2.936-0.518 0.518-1.554 0.345-2.072-0.345zM540.665-42.922c-1.899-2.936-1.727-3.972 0.345-6.044 2.245-2.245 2.59-1.899 3.626 2.245 1.554 6.044-1.036 8.634-3.972 3.799zM549.126-42.577c0-0.863 0.863-1.727 1.727-1.727 1.036 0 1.727 0.863 1.727 1.727 0 1.036-0.691 1.727-1.727 1.727-0.863 0-1.727-0.691-1.727-1.727zM312.38-131.68c-2.763-3.281-6.735-10.016-6.735-11.742 0-0.518 2.418 1.381 5.353 3.972 2.936 2.763 5.008 6.217 4.662 7.943-0.518 2.763-0.691 2.763-3.281-0.173z" />
</font>
</defs>
</svg>
